# xmcd
#
# Track frame offsets:
#	150
#	22481
#	44213
#	74950
#	101601
#	118989
#	148798
#	185614
#	206504
#	225005
#	240782
#
# Disc length: 3567 seconds
#
# Revision: 1
# Processed by: cddbd v1.5.2PL0 Copyright (c) Steve Scherf et al.
# Submitted via: audiograbber 1.83.01
#
DISCID=a80ded0b
DTITLE=Carlos Araujo - Ao Vivo
DYEAR=2013
DGENRE=Evangelica
TTITLE0=Providência de Deus
TTITLE1=Profeta no Pátio
TTITLE2=Mical
TTITLE3=O Meu Milagre Vira Noticia
TTITLE4=Sanção e Dalila
TTITLE5=O Joio e o Trigo
TTITLE6=O Cego de Jericó 
TTITLE7=Samba Diferente
TTITLE8=Minhas Lambranças
TTITLE9=Profetizar
TTITLE10=A Rua Chamada Direita
EXTD=
EXTT0=
EXTT1=
EXTT2=
EXTT3=
EXTT4=
EXTT5=
EXTT6=
EXTT7=
EXTT8=
EXTT9=
EXTT10=
PLAYORDER=
